<?xml version="1.0" encoding="utf-8"?>
<!-- Generator: Adobe Illustrator 17.0.2, SVG Export Plug-In . SVG Version: 6.00 Build 0)  -->
<!DOCTYPE svg PUBLIC "-//W3C//DTD SVG 1.1//EN" "http://www.w3.org/Graphics/SVG/1.1/DTD/svg11.dtd">
<svg version="1.1" xmlns="http://www.w3.org/2000/svg" xmlns:xlink="http://www.w3.org/1999/xlink" x="0px" y="0px" width="829px"
	 height="122px" viewBox="0 0 829 122" enable-background="new 0 0 829 122" xml:space="preserve">
<g id="Layer_2">
	<rect fill="#0071BC" width="829" height="122"/>
	<ellipse fill="#662D91" cx="421.5" cy="59.7" rx="113.6" ry="54.7"/>
</g>
<g id="Layer_1">
	<g>
		<rect x="34.6" y="21" fill="none" width="759.8" height="95"/>
		<path fill="#FFFFFF" d="M47.6,81.4c3.9,2.4,9.6,4.4,15.6,4.4c8.9,0,14.1-4.7,14.1-11.5c0-6.3-3.6-9.9-12.7-13.4
			c-11-3.9-17.8-9.6-17.8-19.1c0-10.5,8.7-18.3,21.8-18.3c6.9,0,11.9,1.6,14.9,3.3l-2.4,7.1c-2.2-1.2-6.7-3.2-12.8-3.2
			c-9.2,0-12.7,5.5-12.7,10.1c0,6.3,4.1,9.4,13.4,13c11.4,4.4,17.2,9.9,17.2,19.8C86.2,84,78.5,93,62.6,93c-6.5,0-13.6-1.9-17.2-4.3
			L47.6,81.4z"/>
		<path fill="#FFFFFF" d="M142.2,67.4c0,17.9-12.4,25.7-24.1,25.7c-13.1,0-23.2-9.6-23.2-24.9c0-16.2,10.6-25.7,24-25.7
			C132.8,42.5,142.2,52.6,142.2,67.4z M103.8,67.9c0,10.6,6.1,18.6,14.7,18.6c8.4,0,14.7-7.9,14.7-18.8c0-8.2-4.1-18.6-14.5-18.6
			C108.3,49.1,103.8,58.7,103.8,67.9z"/>
		<path fill="#FFFFFF" d="M153.3,56.7c0-5-0.1-9.1-0.4-13.1h7.7l0.4,7.8h0.3c2.7-4.6,7.2-8.9,15.2-8.9c6.6,0,11.6,4,13.7,9.7h0.2
			c1.5-2.7,3.4-4.8,5.4-6.3c2.9-2.2,6.1-3.4,10.7-3.4c6.4,0,15.9,4.2,15.9,21V92h-8.6V64.6c0-9.3-3.4-14.9-10.5-14.9
			c-5,0-8.9,3.7-10.4,8c-0.4,1.2-0.7,2.8-0.7,4.4V92h-8.6V63c0-7.7-3.4-13.3-10.1-13.3c-5.5,0-9.5,4.4-10.9,8.8
			c-0.5,1.3-0.7,2.8-0.7,4.3V92h-8.6V56.7z"/>
		<path fill="#FFFFFF" d="M241.6,69.4c0.2,11.9,7.8,16.8,16.6,16.8c6.3,0,10.1-1.1,13.4-2.5l1.5,6.3c-3.1,1.4-8.4,3-16.1,3
			c-14.9,0-23.8-9.8-23.8-24.4c0-14.6,8.6-26.1,22.7-26.1c15.8,0,20,13.9,20,22.8c0,1.8-0.2,3.2-0.3,4.1H241.6z M267.4,63.1
			c0.1-5.6-2.3-14.3-12.2-14.3c-8.9,0-12.8,8.2-13.5,14.3H267.4z"/>
		<path fill="#FFFFFF" d="M349.5,81.4c3.9,2.4,9.6,4.4,15.6,4.4c8.9,0,14.1-4.7,14.1-11.5c0-6.3-3.6-9.9-12.7-13.4
			c-11-3.9-17.8-9.6-17.8-19.1c0-10.5,8.7-18.3,21.8-18.3c6.9,0,11.9,1.6,14.9,3.3l-2.4,7.1c-2.2-1.2-6.7-3.2-12.8-3.2
			c-9.2,0-12.7,5.5-12.7,10.1c0,6.3,4.1,9.4,13.4,13c11.4,4.4,17.2,9.9,17.2,19.8c0,10.4-7.7,19.4-23.6,19.4
			c-6.5,0-13.6-1.9-17.2-4.3L349.5,81.4z"/>
		<path fill="#FFFFFF" d="M414.8,92l-22-67.4h9.4l10.5,33.2c2.9,9.1,5.4,17.3,7.2,25.2h0.2c1.9-7.8,4.7-16.3,7.7-25.1l11.4-33.3h9.3
			L424.4,92H414.8z"/>
		<path fill="#FFFFFF" d="M507.1,89c-3.9,1.4-11.6,3.7-20.7,3.7c-10.2,0-18.6-2.6-25.2-8.9c-5.8-5.6-9.4-14.6-9.4-25.1
			c0.1-20.1,13.9-34.8,36.5-34.8c7.8,0,13.9,1.7,16.8,3.1l-2.1,7.1c-3.6-1.6-8.1-2.9-14.9-2.9c-16.4,0-27.1,10.2-27.1,27.1
			c0,17.1,10.3,27.2,26,27.2c5.7,0,9.6-0.8,11.6-1.8V63.6h-13.7v-7h22.2V89z"/>
		<path fill="#FFFFFF" d="M583.9,24.6h8.7v60.1h28.8V92h-37.5V24.6z"/>
		<path fill="#FFFFFF" d="M673.3,67.4c0,17.9-12.4,25.7-24.1,25.7c-13.1,0-23.2-9.6-23.2-24.9c0-16.2,10.6-25.7,24-25.7
			C663.8,42.5,673.3,52.6,673.3,67.4z M634.8,67.9c0,10.6,6.1,18.6,14.7,18.6c8.4,0,14.7-7.9,14.7-18.8c0-8.2-4.1-18.6-14.5-18.6
			S634.8,58.7,634.8,67.9z"/>
		<path fill="#FFFFFF" d="M726,43.6c-0.2,3.5-0.4,7.4-0.4,13.3V85c0,11.1-2.2,17.9-6.9,22.1c-4.7,4.4-11.5,5.8-17.6,5.8
			c-5.8,0-12.2-1.4-16.1-4l2.2-6.7c3.2,2,8.2,3.8,14.2,3.8c9,0,15.6-4.7,15.6-16.9v-5.4h-0.2c-2.7,4.5-7.9,8.1-15.4,8.1
			c-12,0-20.6-10.2-20.6-23.6c0-16.4,10.7-25.7,21.8-25.7c8.4,0,13,4.4,15.1,8.4h0.2l0.4-7.3H726z M716.9,62.7c0-1.5-0.1-2.8-0.5-4
			c-1.6-5.1-5.9-9.3-12.3-9.3c-8.4,0-14.4,7.1-14.4,18.3c0,9.5,4.8,17.4,14.3,17.4c5.4,0,10.3-3.4,12.2-9c0.5-1.5,0.7-3.2,0.7-4.7
			V62.7z"/>
		<path fill="#FFFFFF" d="M784,67.4c0,17.9-12.4,25.7-24.1,25.7c-13.1,0-23.2-9.6-23.2-24.9c0-16.2,10.6-25.7,24-25.7
			C774.6,42.5,784,52.6,784,67.4z M745.6,67.9c0,10.6,6.1,18.6,14.7,18.6c8.4,0,14.7-7.9,14.7-18.8c0-8.2-4.1-18.6-14.5-18.6
			S745.6,58.7,745.6,67.9z"/>
	</g>
	<g>
	</g>
	<g>
	</g>
	<g>
	</g>
	<g>
	</g>
	<g>
	</g>
	<g>
	</g>
	<g>
	</g>
	<g>
	</g>
	<g>
	</g>
	<g>
	</g>
	<g>
	</g>
	<g>
	</g>
	<g>
	</g>
	<g>
	</g>
	<g>
	</g>
</g>
</svg>
